HIERARCHY
ROOT Hips
{
	OFFSET 0.000000 0.000000 0.000000
	CHANNELS 6 Xposition Yposition Zposition Zrotation Yrotation Xrotation 
	JOINT LHipJoint
	{
		OFFSET 0.000000 0.000000 0.000000
		CHANNELS 3 Zrotation Yrotation Xrotation
		JOINT LeftUpLeg
		{
			OFFSET 1.363060 -1.794630 0.839290
			CHANNELS 3 Zrotation Yrotation Xrotation
			JOINT LeftLeg
			{
				OFFSET 2.448110 -6.726130 0.000000
				CHANNELS 3 Zrotation Yrotation Xrotation
				JOINT LeftFoot
				{
					OFFSET 2.562200 -7.039590 0.000000
					CHANNELS 3 Zrotation Yrotation Xrotation
					JOINT LeftToeBase
					{
						OFFSET 0.157640 -0.433110 2.322550
						CHANNELS 3 Zrotation Yrotation Xrotation
						End Site
						{
							OFFSET 0.000000 0.000000 0.000000
						}
					}
				}
			}
		}
	}
	JOINT RHipJoint
	{
		OFFSET 0.000000 0.000000 0.000000
		CHANNELS 3 Zrotation Yrotation Xrotation
		JOINT RightUpLeg
		{
			OFFSET -1.305520 -1.794630 0.839290
			CHANNELS 3 Zrotation Yrotation Xrotation
			JOINT RightLeg
			{
				OFFSET -2.542530 -6.985550 0.000000
				CHANNELS 3 Zrotation Yrotation Xrotation
				JOINT RightFoot
				{
					OFFSET -2.568260 -7.056230 0.000000
					CHANNELS 3 Zrotation Yrotation Xrotation
					JOINT RightToeBase
					{
						OFFSET -0.164730 -0.452590 2.363150
						CHANNELS 3 Zrotation Yrotation Xrotation
						End Site
						{
							OFFSET 0.000000 0.000000 0.000000
						}
					}
				}
			}
		}
	}
	JOINT LowerBack
	{
		OFFSET 0.000000 0.000000 0.000000
		CHANNELS 3 Zrotation Yrotation Xrotation
		JOINT Spine
		{
			OFFSET 0.028270 2.035590 -0.193380
			CHANNELS 3 Zrotation Yrotation Xrotation
			JOINT Spine1
			{
				OFFSET 0.056720 2.048850 -0.042750
				CHANNELS 3 Zrotation Yrotation Xrotation
				JOINT Neck
				{
					OFFSET 0.000000 0.000000 0.000000
					CHANNELS 3 Zrotation Yrotation Xrotation
					JOINT Neck1
					{
						OFFSET -0.054170 1.746240 0.172020
						CHANNELS 3 Zrotation Yrotation Xrotation
						JOINT Head
						{
							OFFSET 0.104070 1.761360 -0.123970
							CHANNELS 3 Zrotation Yrotation Xrotation
							End Site
							{
								OFFSET 0.000000 0.000000 0.000000
							}
						}
					}
				}
				JOINT LeftShoulder
				{
					OFFSET 0.000000 0.000000 0.000000
					CHANNELS 3 Zrotation Yrotation Xrotation
					JOINT LeftArm
					{
						OFFSET 3.362410 1.200890 -0.311210
						CHANNELS 3 Zrotation Yrotation Xrotation
						JOINT LeftForeArm
						{
							OFFSET 4.983000 -0.000000 -0.000000
							CHANNELS 3 Zrotation Yrotation Xrotation
							JOINT LeftHand
							{
								OFFSET 3.483560 -0.000000 -0.000000
								CHANNELS 3 Zrotation Yrotation Xrotation
								JOINT LeftFingerBase
								{
									OFFSET 0.000000 0.000000 0.000000
									CHANNELS 3 Zrotation Yrotation Xrotation
									JOINT LeftHandIndex1
									{
										OFFSET 0.715260 -0.000000 -0.000000
										CHANNELS 3 Zrotation Yrotation Xrotation
										End Site
										{
											OFFSET 0.000000 0.000000 0.000000
										}
									}
								}
								JOINT LThumb
								{
									OFFSET 0.000000 0.000000 0.000000
									CHANNELS 3 Zrotation Yrotation Xrotation
									End Site
									{
										OFFSET 0.000000 0.000000 0.000000
									}
								}
							}
						}
					}
				}
				JOINT RightShoulder
				{
					OFFSET 0.000000 0.000000 0.000000
					CHANNELS 3 Zrotation Yrotation Xrotation
					JOINT RightArm
					{
						OFFSET -3.136600 1.374050 -0.404650
						CHANNELS 3 Zrotation Yrotation Xrotation
						JOINT RightForeArm
						{
							OFFSET -5.241900 -0.000000 -0.000000
							CHANNELS 3 Zrotation Yrotation Xrotation
							JOINT RightHand
							{
								OFFSET -3.444170 -0.000000 -0.000000
								CHANNELS 3 Zrotation Yrotation Xrotation
								JOINT RightFingerBase
								{
									OFFSET 0.000000 0.000000 0.000000
									CHANNELS 3 Zrotation Yrotation Xrotation
									JOINT RightHandIndex1
									{
										OFFSET -0.622530 -0.000000 -0.000000
										CHANNELS 3 Zrotation Yrotation Xrotation
										End Site
										{
											OFFSET 0.000000 0.000000 0.000000
										}
									}
								}
								JOINT RThumb
								{
									OFFSET 0.000000 0.000000 0.000000
									CHANNELS 3 Zrotation Yrotation Xrotation
									End Site
									{
										OFFSET 0.000000 0.000000 0.000000
									}
								}
							}
						}
					}
				}
			}
		}
	}
}
MOTION
Frames: 7
Frame Time: 0.008333
0.446200 17.521582 7.605367 -1.646801 -9.669520 21.893198 -2.703408 -5.074045 -6.038671 -13.284643 3.331677 -46.908929 -2.343017 4.098425 8.741648 0.408804 2.166717 6.966080 0.451800 -4.312300 -11.957100 2.226220 1.375456 0.491293 15.800240 -3.155659 -7.620939 -0.039164 -6.920757 20.404028 -2.785267 25.504743 0.502276 -0.024900 1.018000 -2.798200 2.311995 4.876222 -9.172804 0.274046 5.267818 -9.213998 -0.875267 3.153135 -0.575651 -2.509834 -0.890548 -9.251806 1.990199 -1.042923 10.277322 -0.642000 -0.397400 3.592700 12.925465 8.338146 0.864796 -101.893667 27.932541 -16.946860 3.147907 -12.303543 -0.087773 -1.072050 -0.695046 28.995626 15.920849 -14.531687 -3.909400 -7.125000 0.000000 0.000000 -7.439600 16.191900 5.113700 -13.055764 -7.288269 -1.273038 94.313465 19.183885 39.917817 -33.124694 49.321759 -14.346357 0.151109 -1.101500 -11.761408 -23.557817 -32.073767 12.574600 7.125000 0.000000 0.000000 9.837300 -62.824000 -4.280100
0.445978 17.500262 7.738827 -1.454390 -9.598564 21.726413 -2.763385 -5.024966 -6.009149 -12.820087 2.381348 -46.299353 -2.326785 4.223016 8.993230 0.252564 2.706341 6.485206 0.359713 -3.821799 -10.579572 2.226368 1.334299 0.519358 15.546305 -2.841010 -6.993512 -0.068833 -6.988167 20.624854 -2.827999 24.951795 0.215953 -0.078651 1.685733 -4.640655 1.985831 4.795197 -8.995147 0.254706 5.229638 -9.201479 -0.780037 3.139142 -0.646092 -2.527568 -0.919719 -9.256131 2.013766 -1.086823 10.189394 -0.631791 -0.420371 3.554467 12.920690 8.330691 0.869579 -101.867543 28.054878 -18.347099 3.076074 -12.115913 -0.067436 -1.098762 -0.668593 30.143648 15.839285 -14.758282 -3.955903 -7.125000 0.000000 0.000000 -7.488400 15.968778 5.184501 -13.049681 -7.277830 -1.275989 94.048228 19.377363 40.088795 -33.475875 49.551926 -14.582538 0.154196 -1.080597 -11.536924 -23.971898 -31.739605 12.704972 7.125000 0.000000 0.000000 9.131793 -62.611904 -3.928444
0.446479 17.479404 7.873399 -1.276932 -9.505407 21.568012 -2.822110 -4.977786 -5.980578 -12.345376 1.423975 -45.689773 -2.309744 4.348785 9.250286 0.104893 3.213125 6.012881 0.266155 -3.261858 -9.011406 2.225687 1.294193 0.546683 15.311206 -2.558269 -6.388377 -0.099702 -7.057426 20.852860 -2.861468 24.439796 -0.009198 -0.127637 2.289282 -6.306102 1.689066 4.714667 -8.837331 0.236470 5.186018 -9.187779 -0.697108 3.121142 -0.702041 -2.544352 -0.948607 -9.266532 2.039229 -1.130075 10.105311 -0.620151 -0.442879 3.518624 12.916483 8.323690 0.874270 -101.838416 28.170511 -19.780909 3.000784 -11.918973 -0.046213 -1.125921 -0.641675 31.329240 15.760978 -14.983032 -4.002548 -7.125000 0.000000 0.000000 -7.535031 15.747714 5.253438 -13.044103 -7.269312 -1.278746 93.785578 19.565828 40.253758 -33.822678 49.780033 -14.816078 0.157327 -1.060095 -11.306875 -24.379307 -31.410652 12.833117 7.125000 0.000000 0.000000 8.437466 -62.402858 -3.582606
0.463867 17.469381 8.033994 -1.449378 -8.892711 21.605773 -2.851525 -4.975022 -5.974292 -11.633034 0.301763 -45.080078 -2.273757 4.502124 9.635449 0.157728 2.951447 5.740616 0.138183 -1.077037 -2.982309 2.205612 1.278669 0.556676 15.516853 -3.022196 -6.304861 -0.158662 -7.169943 21.248886 -2.678205 24.886021 1.197055 -0.065106 1.390923 -3.829553 2.080256 4.645741 -9.143769 0.244078 5.015118 -9.146452 -0.902023 3.009379 -0.418885 -2.538899 -0.970886 -9.419099 2.109065 -1.158180 10.111202 -0.575026 -0.454569 3.538736 12.925579 8.327320 0.876824 -101.739001 28.129244 -22.000292 2.844596 -11.504200 -0.004277 -1.163534 -0.603851 33.393993 15.758872 -15.164595 -4.052522 -7.125000 0.000000 0.000000 -7.530896 15.574821 5.278756 -13.050340 -7.305753 -1.276947 93.583468 19.636969 40.277959 -34.067008 49.959936 -14.987841 0.161497 -1.048962 -10.946572 -24.630596 -31.203589 12.909176 7.125000 0.000000 0.000000 8.004749 -62.265187 -3.372909
0.479599 17.458531 8.192015 -1.594537 -8.317314 21.634163 -2.878055 -4.969964 -5.966730 -10.988789 -0.762518 -44.521837 -2.237033 4.665028 10.046364 0.207999 2.700265 5.484482 0.020286 0.861788 2.368705 2.185491 1.263794 0.566110 15.695296 -3.424206 -6.202991 -0.217026 -7.284457 21.649048 -2.508474 25.254974 2.325709 -0.009813 0.607639 -1.670050 2.411584 4.575058 -9.412144 0.249306 4.854617 -9.110460 -1.084138 2.905278 -0.170364 -2.534396 -0.993678 -9.562139 2.181692 -1.188329 10.111551 -0.529838 -0.467246 3.556309 12.933114 8.329194 0.878055 -101.636134 28.085124 -24.242771 2.689566 -11.088390 0.037327 -1.200543 -0.565409 35.488737 15.762196 -15.342967 -4.102898 -7.125000 0.000000 0.000000 -7.523539 15.404619 5.301297 -13.056101 -7.337540 -1.274488 93.391816 19.687087 40.280611 -34.319012 50.141910 -15.164338 0.165994 -1.037533 -10.565990 -24.868030 -30.994235 12.976715 7.125000 0.000000 0.000000 7.586793 -62.121879 -3.168852
0.476775 17.438429 8.321210 -1.434096 -8.159657 21.557602 -2.872273 -4.939213 -5.944896 -11.107224 -1.177965 -44.539868 -2.192055 4.935057 10.745713 0.229557 2.566637 5.409012 0.015232 0.045460 0.125181 2.164852 1.256187 0.569273 15.569059 -3.132750 -5.895553 -0.268727 -7.421343 22.095522 -2.490309 24.758477 2.585258 -0.035591 1.113199 -3.061463 2.072472 4.484694 -9.254209 0.227877 4.810593 -9.134224 -1.010892 2.886984 -0.309756 -2.540544 -1.022215 -9.598476 2.285592 -1.241381 10.049828 -0.483948 -0.490982 3.545436 12.923153 8.311407 0.864461 -101.494588 28.009039 -26.743933 2.547516 -10.660978 0.075221 -1.230773 -0.520054 37.919376 15.826349 -15.485608 -4.157772 -7.125000 0.000000 0.000000 -7.480099 15.264549 5.292721 -13.056524 -7.317203 -1.264649 93.317282 19.501733 40.041910 -34.656964 50.347082 -15.393853 0.174142 -1.022784 -9.958269 -24.950285 -30.759225 12.948844 7.125000 0.000000 0.000000 7.334166 -61.915449 -3.027965
0.474427 17.416646 8.451706 -1.261860 -8.005064 21.472213 -2.866793 -4.906674 -5.921604 -11.255771 -1.582681 -44.561800 -2.143743 5.216984 11.476903 0.242147 2.468835 5.346226 0.035446 -0.884360 -2.435835 2.143688 1.246360 0.573564 15.427773 -2.867868 -5.580866 -0.324298 -7.560697 22.548525 -2.477086 24.267564 2.789475 -0.076859 1.699332 -4.678409 1.727858 4.395678 -9.102923 0.204685 4.768540 -9.155943 -0.937654 2.869598 -0.442030 -2.551499 -1.053176 -9.630197 2.388760 -1.297187 9.991497 -0.437317 -0.516149 3.534482 12.912821 8.294012 0.851305 -101.356040 27.938911 -29.197234 2.416020 -10.259841 0.109222 -1.258920 -0.474274 40.297213 15.858571 -15.602404 -4.197421 -7.125000 0.000000 0.000000 -7.458180 15.151472 5.295273 -13.057503 -7.297586 -1.253930 93.233233 19.299246 39.802155 -35.011020 50.561834 -15.634171 0.182835 -1.008293 -9.379095 -25.031577 -30.534743 12.924180 7.125000 0.000000 0.000000 7.089052 -61.719180 -2.892306
